# xmcd CD database file
# Copyright (C) 1996 Ti Kan
#
# Track frame offsets:
#	150
#	12643
#	25418
#	37205
#	50110
#	60055
#	75660
#	94515
#	105915
#	122575
#	136633
#	149953
#	162945
#
# Disc length: 2446 seconds
#
# Revision: 1
# Processed by: cddbd v1.4b41PL1 Copyright (c) Steve Scherf et al.
# Submitted via: EasyCD 2.21 - (C) 1996 Greg Leichner
#
DISCID=aa098c0d
DTITLE=Charley Pride - Platinum Pride Greatest Hits Vol 2
DYEAR=1900
DGENRE=
TTITLE0=Crystal Chandeliers
TTITLE1=Hope You're Feelin' Me (Like I'm Feelin' You)
TTITLE2=She's Just An Old Love
TTITLE3=I'll Be Leaving Alone
TTITLE4=Someone Loves You Honey
TTITLE5=Burgers and Fries 
TTITLE6=Where Do I Put Her Memory
TTITLE7=Missin' You
TTITLE8=Roll On Mississippi
TTITLE9=Never Been So Loved (In All My Life)
TTITLE10=Mountain Of Love
TTITLE11=I Don't Think She's In Love Anymore
TTITLE12=You're So Good When You're Bad
EXTD=
EXTT0=
EXTT1=
EXTT2=
EXTT3=
EXTT4=
EXTT5=
EXTT6=
EXTT7=
EXTT8=
EXTT9=
EXTT10=
EXTT11=
EXTT12=
PLAYORDER=
